<svg width="64" height="64" viewBox="0 0 64 64" fill="none" xmlns="http://www.w3.org/2000/svg">
<path fill-rule="evenodd" clip-rule="evenodd" d="M19.7559 3V6H34.5118H49.2678V31.2681V56.5364L54.6 56.5015L59.9323 56.4667L59.9661 28.2333L60 0H39.8779H19.7559V3ZM23.7803 19.4667V29.0667H14.3901H5V46.5333V64H13.6973C18.4807 64 27.5657 63.9601 33.886 63.9113L45.3776 63.8228V36.8447V9.86667H34.5789H23.7803V19.4667ZM12.4295 17.4759C8.45396 21.5876 5.1811 25.0076 5.15655 25.0759C5.12932 25.1515 7.97224 25.2 12.4339 25.2H19.7559V17.6C19.7559 13.42 19.7338 10 19.7068 10C19.6799 10 16.405 13.3641 12.4295 17.4759Z" fill="#0E0909"/>
</svg>
