<svg width="64" height="64" viewBox="0 0 64 64" fill="none" xmlns="http://www.w3.org/2000/svg">
<path fill-rule="evenodd" clip-rule="evenodd" d="M64 11H0V52H64V11ZM13.5758 17.8333H7.75757V23.6905H13.5758V17.8333ZM24.2424 17.8333H18.4242V23.6905H24.2424V17.8333ZM12.9293 28.5714H18.7475V34.4286H12.9293V28.5714ZM13.5758 39.3095H7.75757V45.1667H13.5758V39.3095ZM29.0909 17.8333H34.9091V23.6905H29.0909V17.8333ZM29.4141 28.5714H23.596V34.4286H29.4141V28.5714ZM18.4242 39.3095H45.5757V45.1667H18.4242V39.3095ZM45.5757 17.8333H39.7576V23.6905H45.5757V17.8333ZM34.2626 28.5714H40.0808V34.4286H34.2626V28.5714ZM56.2424 17.8333H50.4242V23.6905H56.2424V17.8333ZM44.9293 28.5714H50.7475V34.4286H44.9293V28.5714ZM56.2424 39.3095H50.4242V45.1667H56.2424V39.3095Z" fill="#0E0909"/>
</svg>
