<svg width="64" height="64" viewBox="0 0 64 64" fill="none" xmlns="http://www.w3.org/2000/svg">
<g clip-path="url(#clip0_6_120)">
<path fill-rule="evenodd" clip-rule="evenodd" d="M30.2897 0.174955C27.0776 0.877256 24.3839 3.13695 23.2032 6.1197C22.433 8.06544 22.4432 7.87664 22.4443 20.14C22.4448 27.2575 22.492 31.5944 22.5742 32.1046C23.2206 36.1165 26.1562 39.2323 30.2031 40.2015C31.3603 40.4787 33.6398 40.4787 34.7969 40.2015C38.8438 39.2323 41.7795 36.1165 42.4259 32.1046C42.5081 31.5944 42.5552 27.2575 42.5557 20.14C42.5566 10.452 42.5308 8.84814 42.3606 8.01193C41.5438 4.00004 38.5848 0.98916 34.6554 0.171829C33.5479 -0.0586039 31.3502 -0.0569785 30.2897 0.174955ZM9.08607 31.4582C9.31762 34.7453 9.99962 37.2852 11.4004 40.0759C13.4067 44.0731 16.6177 47.4891 20.581 49.8426C22.9107 51.226 26.2301 52.4616 28.5581 52.8118L29.1478 52.9006V58.4504V64H32.5H35.8523V58.4504V52.9006L36.442 52.8118C38.7699 52.4616 42.0894 51.226 44.4191 49.8426C46.7358 48.4669 49.3144 46.2539 50.9054 44.2759C53.9367 40.5075 55.5713 36.3242 55.914 31.4582L56 30.2368L53.0961 30.2704L50.1924 30.304L50.1083 31.5543C49.9509 33.8979 49.505 35.523 48.3932 37.8059C45.7421 43.2498 40.1084 46.9431 33.8347 47.3502C28.5615 47.6924 23.6901 45.9695 20.0086 42.4601C18.5711 41.0899 17.4772 39.5931 16.6069 37.8059C15.495 35.523 15.0492 33.8979 14.8918 31.5543L14.8077 30.304L11.9039 30.2704L9.00003 30.2368L9.08607 31.4582Z" fill="#0E0909"/>
</g>
<defs>
<clipPath id="clip0_6_120">
<rect width="64" height="64" fill="white"/>
</clipPath>
</defs>
</svg>
