<svg width="64" height="64" viewBox="0 0 64 64" fill="none" xmlns="http://www.w3.org/2000/svg">
<g clip-path="url(#clip0_6_812)">
<path fill-rule="evenodd" clip-rule="evenodd" d="M16.7755 0.139504C15.8784 0.493598 15.2498 1.12756 14.9418 1.98865C14.8027 2.37759 14.7609 2.76349 14.6968 4.25448L14.6194 6.05151L14.3372 6.6375C13.7524 7.85183 13.0902 8.69104 11.3721 10.3945L9.75004 12.0031V23.5015V35L18.8716 34.9802L27.9931 34.9603L31.3834 27.581C33.248 23.5223 34.8251 19.9888 34.8878 19.7287C35.3542 17.7955 34.3265 15.5725 32.5458 14.6627C31.4127 14.0839 31.6811 14.1085 26.1933 14.0784C23.4791 14.0635 21.2583 14.0401 21.2583 14.0264C21.2583 14.0128 21.4587 13.5137 21.7037 12.9174C22.6985 10.4961 23.058 8.51102 22.9259 6.16871C22.8687 5.15549 22.6453 4.46317 22.0597 3.48542C21.2932 2.20562 19.8299 0.633532 19.065 0.268187C18.4431 -0.0289481 17.3567 -0.089969 16.7755 0.139504ZM0 24.5297V34.9994H3.63629H7.27257V24.5297V14.06H3.63629H0V24.5297Z" fill="#0E0909"/>
<path fill-rule="evenodd" clip-rule="evenodd" d="M47.2245 63.8605C48.1216 63.5064 48.7502 62.8724 49.0582 62.0113C49.1973 61.6224 49.2391 61.2365 49.3032 59.7455L49.3806 57.9485L49.6628 57.3625C50.2476 56.1482 50.9098 55.309 52.6279 53.6055L54.25 51.9969L54.25 40.4985L54.25 29L45.1284 29.0198L36.0069 29.0397L32.6166 36.419C30.752 40.4777 29.1749 44.0112 29.1122 44.2713C28.6458 46.2045 29.6735 48.4275 31.4542 49.3373C32.5873 49.9161 32.3189 49.8915 37.8067 49.9216C40.5209 49.9365 42.7417 49.9599 42.7417 49.9736C42.7417 49.9872 42.5413 50.4863 42.2963 51.0826C41.3015 53.5039 40.942 55.489 41.0741 57.8313C41.1313 58.8445 41.3547 59.5368 41.9403 60.5146C42.7068 61.7944 44.1701 63.3665 44.935 63.7318C45.5569 64.0289 46.6433 64.09 47.2245 63.8605ZM64 39.4703L64 29.0006L60.3637 29.0006L56.7274 29.0006L56.7274 39.4703L56.7274 49.94L60.3637 49.94L64 49.94L64 39.4703Z" fill="#0E0909"/>
</g>
<defs>
<clipPath id="clip0_6_812">
<rect width="64" height="64" fill="white"/>
</clipPath>
</defs>
</svg>
