<svg width="64" height="64" viewBox="0 0 64 64" fill="none" xmlns="http://www.w3.org/2000/svg">
<g clip-path="url(#clip0_200_1664)">
<path fill-rule="evenodd" clip-rule="evenodd" d="M22.8026 0.12291C12.9888 1.38257 4.66899 8.09649 1.43212 17.3687C0.435704 20.2228 0 22.8313 0 25.9418C0 29.0412 0.365397 31.3261 1.3221 34.2079C3.91621 42.023 10.1623 48.1947 18.0503 50.7369C20.6904 51.5877 23.0387 51.9461 25.9749 51.9461C29.0042 51.9461 31.3375 51.5781 34.0865 50.6666C35.904 50.0639 38.8492 48.6305 40.2736 47.6551L41.2726 46.9711L49.7956 55.4855L58.3186 64L61.1592 61.1584L64 58.3169L55.4881 49.7913L46.9762 41.2657L47.66 40.2664C48.6475 38.8235 50.087 35.8549 50.6811 34.0364C51.5952 31.2388 51.9498 28.9826 51.9498 25.9634C51.9498 24.8948 51.891 23.5442 51.819 22.9621C51.0872 17.0406 48.5253 11.7719 44.3436 7.58908C40.162 3.40611 34.895 0.843432 28.9752 0.111418C27.7311 -0.0423549 24.0369 -0.0354845 22.8026 0.12291ZM24.4381 8.10349C21.3677 8.38792 18.5391 9.38863 15.9221 11.1164C14.6164 11.9784 11.9942 14.6014 11.1324 15.9076C7.53322 21.3624 7.06355 27.992 9.86696 33.7707C10.8182 35.7313 11.6451 36.8719 13.3573 38.5848C15.0697 40.2975 16.21 41.1247 18.1699 42.0762C20.3231 43.1214 22.0856 43.6003 24.5875 43.8199C28.4969 44.163 32.5739 43.0906 36.0277 40.8104C37.3334 39.9483 39.9556 37.3253 40.8174 36.0192C44.4056 30.5809 44.8824 23.8743 42.0873 18.1561C41.2092 16.3594 40.3211 15.0927 38.9123 13.6273C37.0528 11.693 35.1886 10.3935 32.8727 9.41674C30.3537 8.35432 27.137 7.85353 24.4381 8.10349Z" fill="#0E0909"/>
</g>
<defs>
<clipPath id="clip0_200_1664">
<rect width="64" height="64" fill="white"/>
</clipPath>
</defs>
</svg>
