<svg width="64" height="64" viewBox="0 0 64 64" fill="none" xmlns="http://www.w3.org/2000/svg">
<g clip-path="url(#clip0_1_47)">
<path fill-rule="evenodd" clip-rule="evenodd" d="M8.45403 25.6742L16.9079 34.1747L19.9522 31.1167L22.9965 28.0588L19.6585 24.6986L16.3205 21.3385L29.9729 21.3385L43.6254 21.3385L43.6254 17.0873L43.6254 12.8362L29.9729 12.8362L16.3205 12.8362L19.6585 9.47603L22.9965 6.11591L19.9522 3.05796L16.9079 -7.39067e-07L8.45403 8.50047C3.8042 13.1757 -2.00898e-06 17.0399 -2.00691e-06 17.0873C-2.00483e-06 17.1348 3.8042 20.9989 8.45403 25.6742ZM33.9434 50.2465L47.5958 50.2465L44.2174 53.6472L40.8388 57.0482L43.7943 60.024C45.42 61.6609 46.8271 63 46.9215 63C47.0159 63 50.8972 59.1738 55.5465 54.4975L64 45.9948L55.5044 37.4513L47.0087 28.9076L43.9643 31.9658L40.9198 35.0239L44.2578 38.384L47.5958 41.7441L33.9434 41.7441L20.2909 41.7441L20.2909 45.9953L20.2909 50.2465L33.9434 50.2465Z" fill="#0E0909"/>
</g>
<defs>
<clipPath id="clip0_1_47">
<rect width="64" height="64" fill="white"/>
</clipPath>
</defs>
</svg>
