<svg width="64" height="64" viewBox="0 0 64 64" fill="none" xmlns="http://www.w3.org/2000/svg">
<path fill-rule="evenodd" clip-rule="evenodd" d="M38.9634 1.03886C38.9318 1.12091 38.9209 2.78268 38.9392 4.73169L38.9724 8.27524L40.2236 8.72458C48.5704 11.7217 54.6298 18.7456 56.3005 27.3603C58.6125 39.2834 51.7956 51.1202 40.2236 55.2754L38.9724 55.7248L38.9392 59.2683C38.9209 61.2173 38.9318 62.8791 38.9634 62.9611C39.0361 63.1495 41.022 62.6295 42.981 61.9091C53.1993 58.1515 60.8119 49.5098 63.1864 38.9723C63.4634 37.7428 63.7754 35.7868 63.832 34.9259C63.8499 34.652 63.895 36.2768 63.9323 38.5365C63.9705 40.8513 64 37.943 64 31.8755C63.9999 25.6647 63.9712 22.8978 63.9323 25.339C63.8952 27.6672 63.85 29.348 63.832 29.0741C63.7754 28.2125 63.4633 26.2568 63.1864 25.0277C60.8119 14.4902 53.1993 5.8485 42.981 2.09093C41.022 1.37054 39.0361 0.85048 38.9634 1.03886ZM22.9581 12.4526L14.0757 21.2925H7.03793H0V32V42.7075H7.03718H14.0745L22.989 51.5781L31.9036 60.4489V32.0308C31.9036 16.4008 31.8893 3.61276 31.8719 3.61276C31.8546 3.61276 27.8433 7.59071 22.9581 12.4526ZM38.989 17.7693C38.8713 17.8863 38.8931 46.1686 39.0108 46.2411C39.1649 46.3358 40.7997 45.3305 41.921 44.4515C44.7605 42.2259 46.7414 39.0455 47.6214 35.2994C47.8055 34.5158 47.8554 33.8121 47.8554 32C47.8554 29.4811 47.7267 28.6629 47.0128 26.6463C45.7481 23.0732 43.1274 20.0045 39.6458 18.0199C39.328 17.8388 39.0324 17.7259 38.989 17.7693Z" fill="#0E0909"/>
</svg>
