<svg width="64" height="64" viewBox="0 0 64 64" fill="none" xmlns="http://www.w3.org/2000/svg">
<g clip-path="url(#clip0_64_587)">
<path fill-rule="evenodd" clip-rule="evenodd" d="M30.9918 3.18767C30.6974 3.2916 30.2299 3.60824 29.9529 3.89124C29.6276 4.22342 24.2455 13.5733 14.7592 30.2858C1.32989 53.945 0.0642278 56.2271 0.00972626 56.879C-0.102138 58.216 0.762937 59.53 1.98568 59.8807C2.35888 59.9878 10.8908 60.0184 32.2989 59.9899L62.0927 59.9503L62.6835 59.5441C63.0683 59.2795 63.4088 58.8789 63.6599 58.3953C63.9878 57.7638 64.0357 57.5384 63.9803 56.8869C63.919 56.1657 63.0552 54.6051 49.2411 30.2632C37.9044 10.2864 34.4352 4.27775 33.9875 3.84326C33.1409 3.02158 32.1038 2.79467 30.9918 3.18767ZM29.1427 30.4211V37.5838H32.004H34.8654V30.4211V23.2584H32.004H29.1427V30.4211ZM29.1427 46.2331V49.0711H32.004H34.8654V46.2331V43.395H32.004H29.1427V46.2331Z" fill="#0E0909"/>
</g>
<defs>
<clipPath id="clip0_64_587">
<rect width="64" height="64" fill="white"/>
</clipPath>
</defs>
</svg>
