<svg width="435" height="305" viewBox="0 0 435 305" fill="none" xmlns="http://www.w3.org/2000/svg">
<g opacity="0.1" clip-path="url(#clip0_1_64)">
<path fill-rule="evenodd" clip-rule="evenodd" d="M68.5197 13.1204C61.4549 20.3396 52.0582 29.9916 47.6377 34.569L39.6012 42.8915L46.2147 49.8396C49.8518 53.6611 64.8074 69.4576 79.4498 84.943C94.0914 100.428 113.569 120.829 122.734 130.278C159.858 168.553 208.247 218.948 214.559 225.909C218.11 229.826 218.244 229.882 220.553 228.365C226.487 224.466 394.167 51.0718 394.849 48.1283C395.133 46.8981 374.278 24.3157 358.34 8.59739L351.089 1.44691L328.635 24.1792L306.182 46.9105L283.43 24.1716L260.677 1.43164L238.85 23.6972C226.846 35.9433 217.024 46.4352 217.024 47.0126C217.024 47.5901 226.769 57.8662 238.679 69.848C250.589 81.8307 260.477 92.0649 260.654 92.5927C260.83 93.1195 253.314 101.599 243.95 111.437C234.587 121.275 224.783 131.624 222.163 134.437L217.401 139.551L210.787 132.528C207.15 128.666 197.214 118.379 188.706 109.669C180.199 100.959 173.239 93.3715 173.239 92.8084C173.239 91.6697 186.394 77.448 204.569 58.9381L216.515 46.7721L208.414 38.4181C181.348 10.5081 172.726 1.90885 171.806 1.90885C171.238 1.90885 160.738 12.0276 148.473 24.3958L126.174 46.8828L120.436 40.3871C113.407 32.4292 82.9241 0.569799 82.0189 0.235754C81.6591 0.102136 75.5844 5.90021 68.5197 13.1204ZM23.351 163.216L1.03659 185.459L3.50761 188.41C4.86687 190.033 13.644 199.769 23.0122 210.046C32.3804 220.323 40.7063 229.677 41.5144 230.834C42.9403 232.877 42.3644 233.569 21.2531 255.194L-0.475922 277.451L-19.0372 259.743C-29.2459 250.004 -39.4403 240.297 -41.6924 238.173L-45.7864 234.309L-50.7398 239.558C-75.2455 265.528 -87.0067 277.735 -87.5216 277.735C-87.8576 277.735 -98.0378 267.776 -110.145 255.603L-132.158 233.471L-140.203 242.003C-144.628 246.696 -153.011 255.688 -158.834 261.987L-169.421 273.44L-169.426 304.221L-169.431 335.002L214.882 334.762L599.196 334.523V301.05V267.577L585.752 252.852C578.357 244.753 571.421 237.33 570.335 236.355C568.385 234.603 568.263 234.681 558.556 243.949C553.161 249.1 542.891 259.091 535.733 266.153L522.72 278.992L500.819 256.651L478.919 234.309L456.965 256.246L435.012 278.185L426.677 269.883C422.093 265.317 412.616 255.981 405.616 249.136C394.225 237.995 393.023 236.515 394.163 235.022C396.31 232.21 404.246 223.55 419.196 207.707L433.492 192.557L430.677 190.161C429.128 188.843 418.987 179.017 408.14 168.327C397.294 157.636 387.871 148.92 387.199 148.96C386.528 148.998 384.098 151.253 381.8 153.97C379.502 156.687 370.399 166.949 361.573 176.774C352.747 186.599 345.525 195.031 345.525 195.512C345.525 195.994 347.346 198.023 349.571 200.023C351.795 202.021 361.412 211.158 370.941 220.324L388.266 236.991L368.097 257.684L347.928 278.377L326.328 256.343L304.728 234.309L282.782 256.24L260.836 278.17L239.168 255.99L217.5 233.809L194.672 256.186C182.117 268.493 171.753 278.484 171.641 278.388C171.53 278.291 161.536 268.334 149.433 256.261L127.425 234.309L107.127 255.306L86.8277 276.303L66.4969 255.41C55.3145 243.919 46.0424 234.015 45.892 233.401C45.7416 232.787 55.4868 222.52 67.5468 210.586C79.6069 198.652 89.4748 188.691 89.4748 188.45C89.4748 187.969 70.8726 167.678 55.482 151.372L45.6645 140.972L23.351 163.216ZM-169.005 303.981C-169.006 321.304 -168.877 328.525 -168.719 320.029C-168.562 311.532 -168.561 297.359 -168.718 288.533C-168.876 279.707 -169.005 286.659 -169.005 303.981Z" fill="#0E0909"/>
</g>
<defs>
<clipPath id="clip0_1_64">
<rect width="435" height="335" fill="white"/>
</clipPath>
</defs>
</svg>
