<svg width="2727" height="86" viewBox="0 0 2727 86" fill="none" xmlns="http://www.w3.org/2000/svg">
<path d="M0 85.73V50.88L12.84 38.37L24.98 50.5L19.22 56.35C16.05 59.57 13.45 62.71 13.45 63.34C13.45 63.97 16.04 67.1 19.2 70.31L24.95 76.15L37.83 63.42L43.67 69.17C46.87 72.32 50.02 74.9 50.68 74.9C52.1 74.88 62.22 64.57 62.22 63.14C62.22 62.59 51.12 51.03 37.55 37.44L12.87 12.74L19.06 6.56L25.24 0.369999L37.75 13.35L44.24 6.95L50.72 0.540001L62.74 12.74L56.81 18.76C50.99 24.68 50.91 24.84 52.87 27.83C53.96 29.5 56.82 32.36 59.21 34.19L63.57 37.51L75.63 25.63L81.47 31.38C84.67 34.54 87.85 37.12 88.53 37.12C90.06 37.12 100.02 27.08 100.02 25.54C100.02 24.92 97.42 21.78 94.26 18.56L88.5 12.71L101 0.200001L107.38 6.57L113.75 12.95L126.31 0.540001L132.06 6.38C135.22 9.59 137.81 12.51 137.81 12.86C137.81 13.21 126.84 24.45 113.44 37.82C100.04 51.18 89.06 62.47 89.06 62.9C89.06 63.79 94.31 69.37 98.56 73.01L101.31 75.36L113.43 63.43L119.26 69.17C122.47 72.33 125.65 74.92 126.32 74.92C127.85 74.92 137.81 64.88 137.81 63.33C137.81 62.71 135.22 59.57 132.05 56.35L126.29 50.5L138.78 38.01L151.8 50.49L164.11 38.34L176.08 50.49L173.1 53.86C171.46 55.72 168.75 58.44 167.07 59.91L164.02 62.59L176.79 75.47L189.02 63.43L194.85 69.17C198.06 72.33 201.19 74.92 201.82 74.92C202.45 74.92 205.59 72.33 208.8 69.16L214.66 63.39L164.05 12.74L176.8 0L189.71 12.75L201.73 0.540001L214.62 13.27L202.42 25.63L214.62 37.64L226.8 25.65L231.97 30.47C234.81 33.12 237.32 35.71 237.56 36.21C238.5 38.21 241.01 36.86 246.58 31.38L252.42 25.63L239.67 12.71L252.39 0L265.3 12.75L277.32 0.540001L290.24 13.3L240.19 63.39L252.41 75.44L264.51 63.52L270.6 69.22C273.95 72.36 277.11 74.92 277.62 74.92C278.13 74.92 281.17 72.33 284.38 69.17L290.22 63.42L277.46 50.51L283.84 44.14L290.21 37.76L296.58 44.14L302.96 50.51L315.51 38.12L321.73 44.62L327.96 51.11L315.8 63.42L328 75.44L334.04 69.49C340.6 63.03 341.23 63.04 346.68 69.74C351.56 75.75 353.36 75.68 359.86 69.28L365.83 63.39L315.49 13.01L328.61 0.630001L340.75 12.72L353.63 0L366.35 12.71L353.6 25.63L359.55 31.49C364.8 36.66 365.82 37.2 368.09 35.98C369.51 35.22 371.57 33.23 372.68 31.55C376.77 25.3 378.91 25.34 385.45 31.78L391.4 37.64L403.6 25.63L391.23 13.1L403.91 0.279999L416.34 12.72L429.22 0L441.97 12.74L391.37 63.39L397.42 69.36C397.696 69.6318 397.959 69.8926 398.212 70.1422C400.801 72.705 402.207 74.0965 403.686 74.1802C405.444 74.2796 407.307 72.533 411.382 68.7115C411.719 68.3952 412.071 68.0648 412.44 67.72L417.01 63.44L423.11 69.44L429.19 75.44L441.39 63.42L429.21 51.08L441.86 38.24L448 44.37L454.13 50.51L467.02 37.79L479.73 50.51L466.98 63.42L472.82 69.17C476.03 72.33 479.28 74.92 480.05 74.92C480.82 74.92 482.47 73.68 483.72 72.18C484.97 70.67 487.49 68.09 489.32 66.45L492.64 63.48L498.73 69.47L504.81 75.47L517.52 62.76L492.87 38.31C479.3 24.87 468.21 13.46 468.21 12.95C468.21 12.44 470.83 9.45 474.04 6.29L479.88 0.549999L491.82 12.67L505.01 0.200001L511.27 6.45L517.52 12.71L511.76 18.56C508.6 21.78 506 24.96 506 25.63C506 27.17 516.05 37.12 517.59 37.12C518.21 37.12 521.35 34.54 524.55 31.38L530.39 25.63L542.39 37.46L545.87 34.58C547.78 33 550.67 30.1 552.29 28.15L555.24 24.59L552.26 22.02C550.62 20.6 547.94 17.93 546.31 16.07L543.33 12.69L555.3 0.540001L567.61 12.7L580.62 0.220001L593.15 12.74L542.54 63.39L548.39 69.16C551.61 72.33 554.75 74.92 555.38 74.92C556.01 74.92 559.14 72.33 562.35 69.17L568.18 63.43L580.4 75.47L593.17 62.67L587.38 57.35C584.2 54.42 581.59 51.57 581.59 51.01C581.59 50.45 584.18 47.38 587.34 44.17L593.09 38.34L605.63 50.72L618.07 37.73L630.91 50.5L625.15 56.35C621.98 59.57 619.39 62.75 619.39 63.43C619.39 64.96 629.43 74.92 630.97 74.92C631.6 74.92 634.73 72.33 637.94 69.17L643.77 63.43L649.6 69.17C652.81 72.33 655.81 74.92 656.27 74.92C657.12 74.92 663.73 68.54 666.84 64.71C668.43 62.76 666.36 60.34 643.69 37.66L618.8 12.74L631.28 0.27L644.16 12.88L656.66 0.540001L668.67 12.74L662.93 18.57C659.77 21.78 657.18 24.77 657.18 25.22C657.18 26.11 660.86 30 666.06 34.62L669.42 37.6L681.56 25.63L687.4 31.38C690.61 34.54 693.74 37.12 694.36 37.12C695.91 37.12 705.95 27.17 705.95 25.63C705.95 24.96 703.36 21.78 700.19 18.56L694.43 12.71L706.83 0.299999L713.31 6.57L719.78 12.85L732.24 0.540001L744.28 12.76L735.17 21.96C730.16 27.02 719.07 38.1 710.52 46.58C701.97 55.06 694.98 62.45 694.98 63.01C694.98 64.02 701.01 70.32 705.12 73.59C707.07 75.14 707.89 74.72 713.32 69.37L719.36 63.43L725.19 69.17C728.4 72.33 731.58 74.92 732.25 74.92C733.78 74.92 743.74 64.88 743.74 63.33C743.74 62.71 741.15 59.57 737.98 56.35L732.22 50.5L744.56 38.16L757.97 50.41L769.87 38.34L775.7 44.09C778.91 47.25 781.53 50.13 781.53 50.49C781.53 50.85 778.99 53.82 775.9 57.08L770.28 63.02L782.73 75.47L794.95 63.43L800.78 69.17C803.99 72.33 807.12 74.92 807.75 74.92C808.38 74.92 811.52 72.33 814.74 69.16L820.59 63.39L769.98 12.74L782.73 0L795.64 12.75L807.67 0.540001L820.55 13.27L808.35 25.63L820.55 37.64L832.73 25.65L837.9 30.47C840.74 33.12 843.26 35.71 843.49 36.21C844.43 38.21 846.94 36.86 852.52 31.38L858.35 25.63L845.6 12.71L858.32 0L871.23 12.75L883.25 0.549999L889.09 6.29C892.29 9.45 894.92 12.6 894.92 13.29C894.92 13.98 883.94 25.54 870.52 38.97L846.12 63.39L852.23 69.42L858.35 75.44L864.44 69.43L870.54 63.43L876.37 69.17C879.58 72.33 882.71 74.92 883.34 74.92C883.97 74.92 887.1 72.33 890.31 69.17L896.15 63.42L883.39 50.51L896.11 37.79L902.57 44.17L908.97 50.9028L908.97 50.88L921.81 38.37L933.95 50.5L928.19 56.35C925.02 59.57 922.42 62.71 922.42 63.34C922.42 63.97 925.01 67.1 928.17 70.31L933.92 76.15L946.8 63.42L952.64 69.17C955.84 72.32 958.99 74.9 959.65 74.9C961.07 74.88 971.19 64.57 971.19 63.14C971.19 62.59 960.09 51.03 946.52 37.44L921.84 12.74L928.03 6.56L934.21 0.369999L946.72 13.35L953.21 6.95L959.69 0.540001L971.71 12.74L965.78 18.76C959.96 24.68 959.88 24.84 961.84 27.83C962.93 29.5 965.79 32.36 968.18 34.19L972.54 37.51L984.6 25.63L990.44 31.38C993.64 34.54 996.82 37.12 997.5 37.12C999.03 37.12 1008.99 27.08 1008.99 25.54C1008.99 24.92 1006.39 21.78 1003.23 18.56L997.47 12.71L1009.97 0.200001L1016.35 6.57L1022.72 12.95L1035.28 0.540001L1041.03 6.38C1044.19 9.59 1046.78 12.51 1046.78 12.86C1046.78 13.21 1035.81 24.45 1022.41 37.82C1009.01 51.18 998.03 62.47 998.03 62.9C998.03 63.79 1003.28 69.37 1007.53 73.01L1010.28 75.36L1022.4 63.43L1028.23 69.17C1031.44 72.33 1034.62 74.92 1035.29 74.92C1036.82 74.92 1046.78 64.88 1046.78 63.33C1046.78 62.71 1044.19 59.57 1041.02 56.35L1035.26 50.5L1047.75 38.01L1060.77 50.49L1073.08 38.34L1085.05 50.49L1082.07 53.86C1080.43 55.72 1077.72 58.44 1076.04 59.91L1072.99 62.59L1085.76 75.47L1097.99 63.43L1103.82 69.17C1107.03 72.33 1110.16 74.92 1110.79 74.92C1111.42 74.92 1114.56 72.33 1117.77 69.16L1123.63 63.39L1073.02 12.74L1085.77 0L1098.68 12.75L1110.7 0.540001L1123.59 13.27L1111.39 25.63L1123.59 37.64L1135.77 25.65L1140.94 30.47C1143.78 33.12 1146.29 35.71 1146.53 36.21C1147.47 38.21 1149.98 36.86 1155.55 31.38L1161.39 25.63L1148.64 12.71L1161.36 0L1174.27 12.75L1186.29 0.540001L1199.21 13.3L1149.16 63.39L1161.38 75.44L1173.48 63.52L1179.57 69.22C1182.92 72.36 1186.08 74.92 1186.59 74.92C1187.1 74.92 1190.14 72.33 1193.35 69.17L1199.19 63.42L1186.43 50.51L1192.81 44.14L1199.18 37.76L1205.55 44.14L1211.93 50.51L1224.48 38.12L1230.7 44.62L1236.93 51.11L1224.77 63.42L1236.97 75.44L1243.01 69.49C1249.57 63.03 1250.2 63.04 1255.65 69.74C1260.53 75.75 1262.33 75.68 1268.83 69.28L1274.8 63.39L1224.46 13.01L1237.58 0.630001L1249.72 12.72L1262.6 0L1275.32 12.71L1262.57 25.63L1268.52 31.49C1273.77 36.66 1274.79 37.2 1277.06 35.98C1278.48 35.22 1280.54 33.23 1281.65 31.55C1285.74 25.3 1287.88 25.34 1294.42 31.78L1300.37 37.64L1312.57 25.63L1300.2 13.1L1312.88 0.279999L1325.31 12.72L1338.19 0L1350.94 12.74L1300.34 63.39L1306.39 69.36C1306.67 69.6318 1306.93 69.8925 1307.18 70.1422C1309.77 72.705 1311.18 74.0965 1312.66 74.1802C1314.41 74.2795 1316.28 72.5329 1320.35 68.7112C1320.69 68.3951 1321.04 68.0647 1321.41 67.72L1325.98 63.44L1332.08 69.44L1338.16 75.44L1350.36 63.42L1338.18 51.08L1350.83 38.24L1356.97 44.37L1363.1 50.51L1375.99 37.79L1388.7 50.51L1375.95 63.42L1381.79 69.17C1385 72.33 1388.25 74.92 1389.02 74.92C1389.79 74.92 1391.44 73.68 1392.69 72.18C1393.94 70.67 1396.46 68.09 1398.29 66.45L1401.61 63.48L1407.7 69.47L1413.78 75.47L1426.49 62.76L1401.84 38.31C1388.27 24.87 1377.18 13.46 1377.18 12.95C1377.18 12.44 1379.8 9.45 1383.01 6.29L1388.85 0.549999L1400.79 12.67L1413.98 0.200001L1420.24 6.45L1426.49 12.71L1420.73 18.56C1417.57 21.78 1414.97 24.96 1414.97 25.63C1414.97 27.17 1425.02 37.12 1426.56 37.12C1427.18 37.12 1430.32 34.54 1433.52 31.38L1439.36 25.63L1451.36 37.46L1454.84 34.58C1456.75 33 1459.64 30.1 1461.26 28.15L1464.21 24.59L1461.23 22.02C1459.59 20.6 1456.91 17.93 1455.28 16.07L1452.3 12.69L1464.27 0.540001L1476.58 12.7L1489.59 0.220001L1502.12 12.74L1451.51 63.39L1457.36 69.16C1460.58 72.33 1463.72 74.92 1464.35 74.92C1464.98 74.92 1468.11 72.33 1471.32 69.17L1477.15 63.43L1489.37 75.47L1502.14 62.67L1496.35 57.35C1493.17 54.42 1490.56 51.57 1490.56 51.01C1490.56 50.45 1493.15 47.38 1496.31 44.17L1502.06 38.34L1514.6 50.72L1527.04 37.73L1539.88 50.5L1534.12 56.35C1530.95 59.57 1528.36 62.75 1528.36 63.43C1528.36 64.96 1538.4 74.92 1539.94 74.92C1540.57 74.92 1543.7 72.33 1546.91 69.17L1552.74 63.43L1558.57 69.17C1561.78 72.33 1564.78 74.92 1565.24 74.92C1566.09 74.92 1572.7 68.54 1575.81 64.71C1577.4 62.76 1575.33 60.34 1552.66 37.66L1527.77 12.74L1540.25 0.27L1553.13 12.88L1565.63 0.540001L1577.64 12.74L1571.9 18.57C1568.74 21.78 1566.15 24.77 1566.15 25.22C1566.15 26.11 1569.83 30 1575.03 34.62L1578.39 37.6L1590.53 25.63L1596.37 31.38C1599.58 34.54 1602.71 37.12 1603.33 37.12C1604.88 37.12 1614.92 27.17 1614.92 25.63C1614.92 24.96 1612.33 21.78 1609.16 18.56L1603.4 12.71L1615.8 0.299999L1622.28 6.57L1628.75 12.85L1641.21 0.540001L1653.25 12.76L1644.14 21.96C1639.13 27.02 1628.04 38.1 1619.49 46.58C1610.94 55.06 1603.95 62.45 1603.95 63.01C1603.95 64.02 1609.98 70.32 1614.09 73.59C1616.04 75.14 1616.86 74.72 1622.29 69.37L1628.33 63.43L1634.16 69.17C1637.37 72.33 1640.55 74.92 1641.22 74.92C1642.75 74.92 1652.71 64.88 1652.71 63.33C1652.71 62.71 1650.12 59.57 1646.95 56.35L1641.19 50.5L1653.53 38.16L1666.94 50.41L1678.84 38.34L1684.67 44.09C1687.88 47.25 1690.5 50.13 1690.5 50.49C1690.5 50.85 1687.96 53.82 1684.87 57.08L1679.25 63.02L1691.7 75.47L1703.92 63.43L1709.75 69.17C1712.96 72.33 1716.09 74.92 1716.72 74.92C1717.35 74.92 1720.49 72.33 1723.71 69.16L1729.56 63.39L1678.95 12.74L1691.7 0L1704.61 12.75L1716.64 0.540001L1729.52 13.27L1717.32 25.63L1729.52 37.64L1741.7 25.65L1746.87 30.47C1749.71 33.12 1752.23 35.71 1752.46 36.21C1753.4 38.21 1755.91 36.86 1761.49 31.38L1767.32 25.63L1754.57 12.71L1767.29 0L1780.2 12.75L1792.22 0.549999L1798.06 6.29C1801.26 9.45 1803.89 12.6 1803.89 13.29C1803.89 13.98 1792.91 25.54 1779.49 38.97L1755.09 63.39L1761.2 69.42L1767.32 75.44L1773.41 69.43L1779.51 63.43L1785.34 69.17C1788.55 72.33 1791.68 74.92 1792.31 74.92C1792.94 74.92 1796.07 72.33 1799.28 69.17L1805.12 63.42L1792.36 50.51L1805.08 37.79L1817.94 50.48V85.73H0Z" fill="#FBF7F7"/>
<path d="M1817.94 85.73H2726.91V50.48L2714.05 37.79L2701.33 50.51L2714.09 63.42L2708.25 69.17C2705.04 72.33 2701.91 74.92 2701.28 74.92C2700.65 74.92 2697.52 72.33 2694.31 69.17L2688.48 63.43L2682.38 69.43L2676.29 75.44L2670.17 69.42L2664.06 63.39L2688.46 38.97C2701.88 25.54 2712.86 13.98 2712.86 13.29C2712.86 12.6 2710.23 9.45 2707.03 6.29L2701.19 0.549999L2689.17 12.75L2676.26 0L2663.54 12.71L2676.29 25.63L2670.46 31.38C2664.88 36.86 2662.37 38.21 2661.43 36.21C2661.2 35.71 2658.68 33.12 2655.84 30.47L2650.67 25.65L2638.49 37.64L2626.29 25.63L2638.49 13.27L2625.61 0.540001L2613.58 12.75L2600.67 0L2587.92 12.74L2638.53 63.39L2632.68 69.16C2629.46 72.33 2626.32 74.92 2625.69 74.92C2625.06 74.92 2621.93 72.33 2618.72 69.17L2612.89 63.43L2600.67 75.47L2588.22 63.02L2593.84 57.08C2596.93 53.82 2599.47 50.85 2599.47 50.49C2599.47 50.13 2596.85 47.25 2593.64 44.09L2587.81 38.34L2575.91 50.41L2562.5 38.16L2550.16 50.5L2555.92 56.35C2559.09 59.57 2561.68 62.71 2561.68 63.33C2561.68 64.88 2551.72 74.92 2550.19 74.92C2549.52 74.92 2546.34 72.33 2543.13 69.17L2537.3 63.43L2531.26 69.37C2525.83 74.72 2525.01 75.14 2523.06 73.59C2518.95 70.32 2512.92 64.02 2512.92 63.01C2512.92 62.45 2519.91 55.06 2528.46 46.58C2537.01 38.1 2548.1 27.02 2553.11 21.96L2562.22 12.76L2550.18 0.540001L2537.72 12.85L2531.25 6.57L2524.77 0.299999L2512.37 12.71L2518.13 18.56C2521.3 21.78 2523.89 24.96 2523.89 25.63C2523.89 27.17 2513.85 37.12 2512.3 37.12C2511.68 37.12 2508.55 34.54 2505.34 31.38L2499.5 25.63L2487.36 37.6L2484 34.62C2478.8 30 2475.12 26.11 2475.12 25.22C2475.12 24.77 2477.71 21.78 2480.87 18.57L2486.61 12.74L2474.6 0.540001L2462.1 12.88L2449.22 0.27L2436.74 12.74L2461.63 37.66C2484.3 60.34 2486.37 62.76 2484.78 64.71C2481.67 68.54 2475.06 74.92 2474.21 74.92C2473.75 74.92 2470.75 72.33 2467.54 69.17L2461.71 63.43L2455.88 69.17C2452.67 72.33 2449.54 74.92 2448.91 74.92C2447.37 74.92 2437.33 64.96 2437.33 63.43C2437.33 62.75 2439.92 59.57 2443.09 56.35L2448.85 50.5L2436.01 37.73L2423.57 50.72L2411.03 38.34L2405.28 44.17C2402.12 47.38 2399.53 50.45 2399.53 51.01C2399.53 51.57 2402.14 54.42 2405.32 57.35L2411.11 62.67L2398.34 75.47L2386.12 63.43L2380.29 69.17C2377.08 72.33 2373.95 74.92 2373.32 74.92C2372.69 74.92 2369.55 72.33 2366.33 69.16L2360.48 63.39L2411.09 12.74L2398.56 0.220001L2385.55 12.7L2373.24 0.540001L2361.27 12.69L2364.25 16.07C2365.88 17.93 2368.56 20.6 2370.2 22.02L2373.18 24.59L2370.23 28.15C2368.61 30.1 2365.72 33 2363.81 34.58L2360.33 37.46L2348.33 25.63L2342.49 31.38C2339.29 34.54 2336.15 37.12 2335.53 37.12C2333.99 37.12 2323.94 27.17 2323.94 25.63C2323.94 24.96 2326.54 21.78 2329.7 18.56L2335.46 12.71L2329.21 6.45L2322.95 0.200001L2309.76 12.67L2297.82 0.549999L2291.98 6.29C2288.77 9.45 2286.15 12.44 2286.15 12.95C2286.15 13.46 2297.24 24.87 2310.81 38.31L2335.46 62.76L2322.75 75.47L2316.67 69.47L2310.58 63.48L2307.26 66.45C2305.43 68.09 2302.91 70.67 2301.66 72.18C2300.41 73.68 2298.76 74.92 2297.99 74.92C2297.22 74.92 2293.97 72.33 2290.76 69.17L2284.92 63.42L2297.67 50.51L2284.96 37.79L2272.07 50.51L2265.94 44.37L2259.8 38.24L2247.15 51.08L2259.33 63.42L2247.13 75.44L2241.05 69.44L2234.95 63.44L2230.38 67.72C2225.56 72.2313 2223.53 74.2878 2221.63 74.1802C2220 74.0884 2218.47 72.4215 2215.36 69.36L2209.31 63.39L2259.91 12.74L2247.16 0L2234.28 12.72L2221.85 0.279999L2209.17 13.1L2221.54 25.63L2209.34 37.64L2203.39 31.78C2196.85 25.34 2194.71 25.3 2190.62 31.55C2189.51 33.23 2187.45 35.22 2186.03 35.98C2183.76 37.2 2182.74 36.66 2177.49 31.49L2171.54 25.63L2184.29 12.71L2171.57 0L2158.69 12.72L2146.55 0.630001L2133.43 13.01L2183.77 63.39L2177.8 69.28C2171.3 75.68 2169.5 75.75 2164.62 69.74C2159.17 63.04 2158.54 63.03 2151.98 69.49L2145.94 75.44L2133.74 63.42L2145.9 51.11L2139.67 44.62L2133.45 38.12L2120.9 50.51L2114.52 44.14L2108.15 37.76L2101.78 44.14L2095.4 50.51L2108.16 63.42L2102.32 69.17C2099.11 72.33 2096.07 74.92 2095.56 74.92C2095.05 74.92 2091.89 72.36 2088.54 69.22L2082.45 63.52L2070.35 75.44L2058.13 63.39L2108.18 13.3L2095.26 0.540001L2083.24 12.75L2070.33 0L2057.61 12.71L2070.36 25.63L2064.52 31.38C2058.95 36.86 2056.44 38.21 2055.5 36.21C2055.26 35.71 2052.75 33.12 2049.91 30.47L2044.74 25.65L2032.56 37.64L2020.36 25.63L2032.56 13.27L2019.67 0.540001L2007.65 12.75L1994.74 0L1981.99 12.74L2032.6 63.39L2026.74 69.16C2023.53 72.33 2020.39 74.92 2019.76 74.92C2019.13 74.92 2016 72.33 2012.79 69.17L2006.96 63.43L1994.73 75.47L1981.96 62.59L1985.01 59.91C1986.69 58.44 1989.4 55.72 1991.04 53.86L1994.02 50.49L1982.05 38.34L1969.74 50.49L1956.72 38.01L1944.23 50.5L1949.99 56.35C1953.16 59.57 1955.75 62.71 1955.75 63.33C1955.75 64.88 1945.79 74.92 1944.26 74.92C1943.59 74.92 1940.41 72.33 1937.2 69.17L1931.37 63.43L1919.25 75.36L1916.5 73.01C1912.25 69.37 1907 63.79 1907 62.9C1907 62.47 1917.98 51.18 1931.38 37.82C1944.78 24.45 1955.75 13.21 1955.75 12.86C1955.75 12.51 1953.16 9.59 1950 6.38L1944.25 0.540001L1931.69 12.95L1925.32 6.57L1918.94 0.200001L1906.44 12.71L1912.2 18.56C1915.36 21.78 1917.96 24.92 1917.96 25.54C1917.96 27.08 1908 37.12 1906.47 37.12C1905.79 37.12 1902.61 34.54 1899.41 31.38L1893.57 25.63L1881.51 37.51L1877.15 34.19C1874.76 32.36 1871.9 29.5 1870.81 27.83C1868.85 24.84 1868.93 24.68 1874.75 18.76L1880.68 12.74L1868.66 0.540001L1862.18 6.95L1855.69 13.35L1843.18 0.369999L1837 6.56L1830.81 12.74L1855.49 37.44C1869.06 51.03 1880.16 62.59 1880.16 63.14C1880.16 64.57 1870.04 74.88 1868.62 74.9C1867.96 74.9 1864.81 72.32 1861.61 69.17L1855.77 63.42L1842.89 76.15L1837.14 70.31C1833.98 67.1 1831.39 63.97 1831.39 63.34C1831.39 62.71 1833.99 59.57 1837.16 56.35L1842.92 50.5L1830.78 38.37L1817.94 50.88L1817.94 85.73Z" fill="#FBF7F7"/>
</svg>
