<?xml version="1.0" encoding="UTF-8"?>
<svg id="_Слой_1" data-name="Слой 1" xmlns="http://www.w3.org/2000/svg" viewBox="0 0 2727 86">
  <defs>
    <style>
      .cls-1 {
        fill: #fbf7f7;
        stroke-width: 0px;
      }
    </style>
  </defs>
  <path class="cls-1" d="M2726.91,50.48v35.25H0v-34.85l12.84-12.51,12.14,12.13-5.76,5.85c-3.17,3.22-5.77,6.36-5.77,6.99s2.59,3.76,5.75,6.97l5.75,5.84,12.88-12.73,5.84,5.75c3.2,3.15,6.35,5.73,7.01,5.73,1.42-.02,11.54-10.33,11.54-11.76,0-.55-11.1-12.11-24.67-25.7L12.87,12.74l6.19-6.18L25.24.37l12.51,12.98,6.49-6.4,6.48-6.41,12.02,12.2-5.93,6.02c-5.82,5.92-5.9,6.08-3.94,9.07,1.09,1.67,3.95,4.53,6.34,6.36l4.36,3.32,12.06-11.88,5.84,5.75c3.2,3.16,6.38,5.74,7.06,5.74,1.53,0,11.49-10.04,11.49-11.58,0-.62-2.6-3.76-5.76-6.98l-5.76-5.85L101,.2l6.38,6.37,6.37,6.38L126.31.54l5.75,5.84c3.16,3.21,5.75,6.13,5.75,6.48s-10.97,11.59-24.37,24.96c-13.4,13.36-24.38,24.65-24.38,25.08,0,.89,5.25,6.47,9.5,10.11l2.75,2.35,12.12-11.93,5.83,5.74c3.21,3.16,6.39,5.75,7.06,5.75,1.53,0,11.49-10.04,11.49-11.59,0-.62-2.59-3.76-5.76-6.98l-5.76-5.85,12.49-12.49,13.02,12.48,12.31-12.15,11.97,12.15-2.98,3.37c-1.64,1.86-4.35,4.58-6.03,6.05l-3.05,2.68,12.77,12.88,12.23-12.04,5.83,5.74c3.21,3.16,6.34,5.75,6.97,5.75s3.77-2.59,6.98-5.76l5.86-5.77-50.61-50.65L176.8,0l12.91,12.75,12.02-12.21,12.89,12.73-12.2,12.36,12.2,12.01,12.18-11.99,5.17,4.82c2.84,2.65,5.35,5.24,5.59,5.74.94,2,3.45.65,9.02-4.83l5.84-5.75-12.75-12.92L252.39,0l12.91,12.75,12.02-12.21,12.92,12.76-50.05,50.09,12.22,12.05,12.1-11.92,6.09,5.7c3.35,3.14,6.51,5.7,7.02,5.7s3.55-2.59,6.76-5.75l5.84-5.75-12.76-12.91,6.38-6.37,6.37-6.38,6.37,6.38,6.38,6.37,12.55-12.39,6.22,6.5,6.23,6.49-12.16,12.31,12.2,12.02,6.04-5.95c6.56-6.46,7.19-6.45,12.64.25,4.88,6.01,6.68,5.94,13.18-.46l5.97-5.89-50.34-50.38,13.12-12.38,12.14,12.09L353.63,0l12.72,12.71-12.75,12.92,5.95,5.86c5.25,5.17,6.27,5.71,8.54,4.49,1.42-.76,3.48-2.75,4.59-4.43,4.09-6.25,6.23-6.21,12.77.23l5.95,5.86,12.2-12.01-12.37-12.53,12.68-12.82,12.43,12.44L429.22,0l12.75,12.74-50.6,50.65,6.05,5.97c.28.27.54.53.79.78,2.59,2.56,4,3.96,5.48,4.04,1.75.1,3.62-1.65,7.69-5.47.34-.31.69-.65,1.06-.99l4.57-4.28,6.1,6,6.08,6,12.2-12.02-12.18-12.34,12.65-12.84,6.14,6.13,6.13,6.14,12.89-12.72,12.71,12.72-12.75,12.91,5.84,5.75c3.21,3.16,6.46,5.75,7.23,5.75s2.42-1.24,3.67-2.74c1.25-1.51,3.77-4.09,5.6-5.73l3.32-2.97,6.09,5.99,6.08,6,12.71-12.71-24.65-24.45c-13.57-13.44-24.66-24.85-24.66-25.36s2.62-3.5,5.83-6.66l5.84-5.74,11.94,12.12L505.01.2l6.26,6.25,6.25,6.26-5.76,5.85c-3.16,3.22-5.76,6.4-5.76,7.07,0,1.54,10.05,11.49,11.59,11.49.62,0,3.76-2.58,6.96-5.74l5.84-5.75,12,11.83,3.48-2.88c1.91-1.58,4.8-4.48,6.42-6.43l2.95-3.56-2.98-2.57c-1.64-1.42-4.32-4.09-5.95-5.95l-2.98-3.38,11.97-12.15,12.31,12.16,13.01-12.48,12.53,12.52-50.61,50.65,5.85,5.77c3.22,3.17,6.36,5.76,6.99,5.76s3.76-2.59,6.97-5.75l5.83-5.74,12.22,12.04,12.77-12.8-5.79-5.32c-3.18-2.93-5.79-5.78-5.79-6.34s2.59-3.63,5.75-6.84l5.75-5.83,12.54,12.38,12.44-12.99,12.84,12.77-5.76,5.85c-3.17,3.22-5.76,6.4-5.76,7.08,0,1.53,10.04,11.49,11.58,11.49.63,0,3.76-2.59,6.97-5.75l5.83-5.74,5.83,5.74c3.21,3.16,6.21,5.75,6.67,5.75.85,0,7.46-6.38,10.57-10.21,1.59-1.95-.48-4.37-23.15-27.05l-24.89-24.92,12.48-12.47,12.88,12.61,12.5-12.34,12.01,12.2-5.74,5.83c-3.16,3.21-5.75,6.2-5.75,6.65,0,.89,3.68,4.78,8.88,9.4l3.36,2.98,12.14-11.97,5.84,5.75c3.21,3.16,6.34,5.74,6.96,5.74,1.55,0,11.59-9.95,11.59-11.49,0-.67-2.59-3.85-5.76-7.07l-5.76-5.85,12.4-12.41,6.48,6.27,6.47,6.28,12.46-12.31,12.04,12.22-9.11,9.2c-5.01,5.06-16.1,16.14-24.65,24.62-8.55,8.48-15.54,15.87-15.54,16.43,0,1.01,6.03,7.31,10.14,10.58,1.95,1.55,2.77,1.13,8.2-4.22l6.04-5.94,5.83,5.74c3.21,3.16,6.39,5.75,7.06,5.75,1.53,0,11.49-10.04,11.49-11.59,0-.62-2.59-3.76-5.76-6.98l-5.76-5.85,12.34-12.34,13.41,12.25,11.9-12.07,5.83,5.75c3.21,3.16,5.83,6.04,5.83,6.4s-2.54,3.33-5.63,6.59l-5.62,5.94,12.45,12.45,12.22-12.04,5.83,5.74c3.21,3.16,6.34,5.75,6.97,5.75s3.77-2.59,6.99-5.76l5.85-5.77-50.61-50.65L782.73,0l12.91,12.75,12.03-12.21,12.88,12.73-12.2,12.36,12.2,12.01,12.18-11.99,5.17,4.82c2.84,2.65,5.36,5.24,5.59,5.74.94,2,3.45.65,9.03-4.83l5.83-5.75-12.75-12.92L858.32,0l12.91,12.75,12.02-12.2,5.84,5.74c3.2,3.16,5.83,6.31,5.83,7s-10.98,12.25-24.4,25.68l-24.4,24.42,6.11,6.03,6.12,6.02,6.09-6.01,6.1-6,5.83,5.74c3.21,3.16,6.34,5.75,6.97,5.75s3.76-2.59,6.97-5.75l5.84-5.75-12.76-12.91,12.72-12.72,6.46,6.38,6.4,6.73v-.02l12.84-12.51,12.14,12.13-5.76,5.85c-3.17,3.22-5.77,6.36-5.77,6.99s2.59,3.76,5.75,6.97l5.75,5.84,12.88-12.73,5.84,5.75c3.2,3.15,6.35,5.73,7.01,5.73,1.42-.02,11.54-10.33,11.54-11.76,0-.55-11.1-12.11-24.67-25.7l-24.68-24.7,6.19-6.18,6.18-6.19,12.51,12.98,6.49-6.4,6.48-6.41,12.02,12.2-5.93,6.02c-5.82,5.92-5.9,6.08-3.94,9.07,1.09,1.67,3.95,4.53,6.34,6.36l4.36,3.32,12.06-11.88,5.84,5.75c3.2,3.16,6.38,5.74,7.06,5.74,1.53,0,11.49-10.04,11.49-11.58,0-.62-2.6-3.76-5.76-6.98l-5.76-5.85,12.5-12.51,6.38,6.37,6.37,6.38,12.56-12.41,5.75,5.84c3.16,3.21,5.75,6.13,5.75,6.48s-10.97,11.59-24.37,24.96c-13.4,13.36-24.38,24.65-24.38,25.08,0,.89,5.25,6.47,9.5,10.11l2.75,2.35,12.12-11.93,5.83,5.74c3.21,3.16,6.39,5.75,7.06,5.75,1.53,0,11.49-10.04,11.49-11.59,0-.62-2.59-3.76-5.76-6.98l-5.76-5.85,12.49-12.49,13.02,12.48,12.31-12.15,11.97,12.15-2.98,3.37c-1.64,1.86-4.35,4.58-6.03,6.05l-3.05,2.68,12.77,12.88,12.23-12.04,5.83,5.74c3.21,3.16,6.34,5.75,6.97,5.75s3.77-2.59,6.98-5.76l5.86-5.77-50.61-50.65L1085.77,0l12.91,12.75,12.02-12.21,12.89,12.73-12.2,12.36,12.2,12.01,12.18-11.99,5.17,4.82c2.84,2.65,5.35,5.24,5.59,5.74.94,2,3.45.65,9.02-4.83l5.84-5.75-12.75-12.92L1161.36,0l12.91,12.75,12.02-12.21,12.92,12.76-50.05,50.09,12.22,12.05,12.1-11.92,6.09,5.7c3.35,3.14,6.51,5.7,7.02,5.7s3.55-2.59,6.76-5.75l5.84-5.75-12.76-12.91,6.38-6.37,6.37-6.38,6.37,6.38,6.38,6.37,12.55-12.39,6.22,6.5,6.23,6.49-12.16,12.31,12.2,12.02,6.04-5.95c6.56-6.46,7.19-6.45,12.64.25,4.88,6.01,6.68,5.94,13.18-.46l5.97-5.89-50.34-50.38,13.12-12.38,12.14,12.09L1262.6,0l12.72,12.71-12.75,12.92,5.95,5.86c5.25,5.17,6.27,5.71,8.54,4.49,1.42-.76,3.48-2.75,4.59-4.43,4.09-6.25,6.23-6.21,12.77.23l5.95,5.86,12.2-12.01-12.37-12.53,12.68-12.82,12.43,12.44L1338.19,0l12.75,12.74-50.6,50.65,6.05,5.97c.28.27.54.53.79.78,2.59,2.56,4,3.96,5.48,4.04,1.75.1,3.62-1.65,7.69-5.47.34-.31.69-.65,1.06-.99l4.57-4.28,6.1,6,6.08,6,12.2-12.02-12.18-12.34,12.65-12.84,6.14,6.13,6.13,6.14,12.89-12.72,12.71,12.72-12.75,12.91,5.84,5.75c3.21,3.16,6.46,5.75,7.23,5.75s2.42-1.24,3.67-2.74c1.25-1.51,3.77-4.09,5.6-5.73l3.32-2.97,6.09,5.99,6.08,6,12.71-12.71-24.65-24.45c-13.57-13.44-24.66-24.85-24.66-25.36s2.62-3.5,5.83-6.66l5.84-5.74,11.94,12.12,13.19-12.47,6.26,6.25,6.25,6.26-5.76,5.85c-3.16,3.22-5.76,6.4-5.76,7.07,0,1.54,10.05,11.49,11.59,11.49.62,0,3.76-2.58,6.96-5.74l5.84-5.75,12,11.83,3.48-2.88c1.91-1.58,4.8-4.48,6.42-6.43l2.95-3.56-2.98-2.57c-1.64-1.42-4.32-4.09-5.95-5.95l-2.98-3.38,11.97-12.15,12.31,12.16,13.01-12.48,12.53,12.52-50.61,50.65,5.85,5.77c3.22,3.17,6.36,5.76,6.99,5.76s3.76-2.59,6.97-5.75l5.83-5.74,12.22,12.04,12.77-12.8-5.79-5.32c-3.18-2.93-5.79-5.78-5.79-6.34s2.59-3.63,5.75-6.84l5.75-5.83,12.54,12.38,12.44-12.99,12.84,12.77-5.76,5.85c-3.17,3.22-5.76,6.4-5.76,7.08,0,1.53,10.04,11.49,11.58,11.49.63,0,3.76-2.59,6.97-5.75l5.83-5.74,5.83,5.74c3.21,3.16,6.21,5.75,6.67,5.75.85,0,7.46-6.38,10.57-10.21,1.59-1.95-.48-4.37-23.15-27.05l-24.89-24.92,12.48-12.47,12.88,12.61,12.5-12.34,12.01,12.2-5.74,5.83c-3.16,3.21-5.75,6.2-5.75,6.65,0,.89,3.68,4.78,8.88,9.4l3.36,2.98,12.14-11.97,5.84,5.75c3.21,3.16,6.34,5.74,6.96,5.74,1.55,0,11.59-9.95,11.59-11.49,0-.67-2.59-3.85-5.76-7.07l-5.76-5.85,12.4-12.41,6.48,6.27,6.47,6.28,12.46-12.31,12.04,12.22-9.11,9.2c-5.01,5.06-16.1,16.14-24.65,24.62-8.55,8.48-15.54,15.87-15.54,16.43,0,1.01,6.03,7.31,10.14,10.58,1.95,1.55,2.77,1.13,8.2-4.22l6.04-5.94,5.83,5.74c3.21,3.16,6.39,5.75,7.06,5.75,1.53,0,11.49-10.04,11.49-11.59,0-.62-2.59-3.76-5.76-6.98l-5.76-5.85,12.34-12.34,13.41,12.25,11.9-12.07,5.83,5.75c3.21,3.16,5.83,6.04,5.83,6.4s-2.54,3.33-5.63,6.59l-5.62,5.94,12.45,12.45,12.22-12.04,5.83,5.74c3.21,3.16,6.34,5.75,6.97,5.75s3.77-2.59,6.99-5.76l5.85-5.77-50.61-50.65L1691.7,0l12.91,12.75,12.03-12.21,12.88,12.73-12.2,12.36,12.2,12.01,12.18-11.99,5.17,4.82c2.84,2.65,5.36,5.24,5.59,5.74.94,2,3.45.65,9.03-4.83l5.83-5.75-12.75-12.92L1767.29,0l12.91,12.75,12.02-12.2,5.84,5.74c3.2,3.16,5.83,6.31,5.83,7s-10.98,12.25-24.4,25.68l-24.4,24.42,6.11,6.03,6.12,6.02,6.09-6.01,6.1-6,5.83,5.74c3.21,3.16,6.34,5.75,6.97,5.75s3.76-2.59,6.97-5.75l5.84-5.75-12.76-12.91,12.72-12.72,12.86,12.69v.4l12.84-12.51,12.14,12.13-5.76,5.85c-3.17,3.22-5.77,6.36-5.77,6.99s2.59,3.76,5.75,6.97l5.75,5.84,12.88-12.73,5.84,5.75c3.2,3.15,6.35,5.73,7.01,5.73,1.42-.02,11.54-10.33,11.54-11.76,0-.55-11.1-12.11-24.67-25.7l-24.68-24.7,6.19-6.18,6.18-6.19,12.51,12.98,6.49-6.4,6.48-6.41,12.02,12.2-5.93,6.02c-5.82,5.92-5.9,6.08-3.94,9.07,1.09,1.67,3.95,4.53,6.34,6.36l4.36,3.32,12.06-11.88,5.84,5.75c3.2,3.16,6.38,5.74,7.06,5.74,1.53,0,11.49-10.04,11.49-11.58,0-.62-2.6-3.76-5.76-6.98l-5.76-5.85,12.5-12.51,6.38,6.37,6.37,6.38,12.56-12.41,5.75,5.84c3.16,3.21,5.75,6.13,5.75,6.48s-10.97,11.59-24.37,24.96c-13.4,13.36-24.38,24.65-24.38,25.08,0,.89,5.25,6.47,9.5,10.11l2.75,2.35,12.12-11.93,5.83,5.74c3.21,3.16,6.39,5.75,7.06,5.75,1.53,0,11.49-10.04,11.49-11.59,0-.62-2.59-3.76-5.76-6.98l-5.76-5.85,12.49-12.49,13.02,12.48,12.31-12.15,11.97,12.15-2.98,3.37c-1.64,1.86-4.35,4.58-6.03,6.05l-3.05,2.68,12.77,12.88,12.23-12.04,5.83,5.74c3.21,3.16,6.34,5.75,6.97,5.75s3.77-2.59,6.98-5.76l5.86-5.77-50.61-50.65L1994.74,0l12.91,12.75,12.02-12.21,12.89,12.73-12.2,12.36,12.2,12.01,12.18-11.99,5.17,4.82c2.84,2.65,5.35,5.24,5.59,5.74.94,2,3.45.65,9.02-4.83l5.84-5.75-12.75-12.92L2070.33,0l12.91,12.75,12.02-12.21,12.92,12.76-50.05,50.09,12.22,12.05,12.1-11.92,6.09,5.7c3.35,3.14,6.51,5.7,7.02,5.7s3.55-2.59,6.76-5.75l5.84-5.75-12.76-12.91,6.38-6.37,6.37-6.38,6.37,6.38,6.38,6.37,12.55-12.39,6.22,6.5,6.23,6.49-12.16,12.31,12.2,12.02,6.04-5.95c6.56-6.46,7.19-6.45,12.64.25,4.88,6.01,6.68,5.94,13.18-.46l5.97-5.89-50.34-50.38,13.12-12.38,12.14,12.09L2171.57,0l12.72,12.71-12.75,12.92,5.95,5.86c5.25,5.17,6.27,5.71,8.54,4.49,1.42-.76,3.48-2.75,4.59-4.43,4.09-6.25,6.23-6.21,12.77.23l5.95,5.86,12.2-12.01-12.37-12.53,12.68-12.82,12.43,12.44L2247.16,0l12.75,12.74-50.6,50.65,6.05,5.97c3.11,3.06,4.64,4.73,6.27,4.82,1.9.11,3.93-1.95,8.75-6.46l4.57-4.28,6.1,6,6.08,6,12.2-12.02-12.18-12.34,12.65-12.84,6.14,6.13,6.13,6.14,12.89-12.72,12.71,12.72-12.75,12.91,5.84,5.75c3.21,3.16,6.46,5.75,7.23,5.75s2.42-1.24,3.67-2.74c1.25-1.51,3.77-4.09,5.6-5.73l3.32-2.97,6.09,5.99,6.08,6,12.71-12.71-24.65-24.45c-13.57-13.44-24.66-24.85-24.66-25.36s2.62-3.5,5.83-6.66l5.84-5.74,11.94,12.12,13.19-12.47,6.26,6.25,6.25,6.26-5.76,5.85c-3.16,3.22-5.76,6.4-5.76,7.07,0,1.54,10.05,11.49,11.59,11.49.62,0,3.76-2.58,6.96-5.74l5.84-5.75,12,11.83,3.48-2.88c1.91-1.58,4.8-4.48,6.42-6.43l2.95-3.56-2.98-2.57c-1.64-1.42-4.32-4.09-5.95-5.95l-2.98-3.38,11.97-12.15,12.31,12.16,13.01-12.48,12.53,12.52-50.61,50.65,5.85,5.77c3.22,3.17,6.36,5.76,6.99,5.76s3.76-2.59,6.97-5.75l5.83-5.74,12.22,12.04,12.77-12.8-5.79-5.32c-3.18-2.93-5.79-5.78-5.79-6.34s2.59-3.63,5.75-6.84l5.75-5.83,12.54,12.38,12.44-12.99,12.84,12.77-5.76,5.85c-3.17,3.22-5.76,6.4-5.76,7.08,0,1.53,10.04,11.49,11.58,11.49.63,0,3.76-2.59,6.97-5.75l5.83-5.74,5.83,5.74c3.21,3.16,6.21,5.75,6.67,5.75.85,0,7.46-6.38,10.57-10.21,1.59-1.95-.48-4.37-23.15-27.05l-24.89-24.92,12.48-12.47,12.88,12.61,12.5-12.34,12.01,12.2-5.74,5.83c-3.16,3.21-5.75,6.2-5.75,6.65,0,.89,3.68,4.78,8.88,9.4l3.36,2.98,12.14-11.97,5.84,5.75c3.21,3.16,6.34,5.74,6.96,5.74,1.55,0,11.59-9.95,11.59-11.49,0-.67-2.59-3.85-5.76-7.07l-5.76-5.85,12.4-12.41,6.48,6.27,6.47,6.28,12.46-12.31,12.04,12.22-9.11,9.2c-5.01,5.06-16.1,16.14-24.65,24.62-8.55,8.48-15.54,15.87-15.54,16.43,0,1.01,6.03,7.31,10.14,10.58,1.95,1.55,2.77,1.13,8.2-4.22l6.04-5.94,5.83,5.74c3.21,3.16,6.39,5.75,7.06,5.75,1.53,0,11.49-10.04,11.49-11.59,0-.62-2.59-3.76-5.76-6.98l-5.76-5.85,12.34-12.34,13.41,12.25,11.9-12.07,5.83,5.75c3.21,3.16,5.83,6.04,5.83,6.4s-2.54,3.33-5.63,6.59l-5.62,5.94,12.45,12.45,12.22-12.04,5.83,5.74c3.21,3.16,6.34,5.75,6.97,5.75s3.77-2.59,6.99-5.76l5.85-5.77-50.61-50.65L2600.67,0l12.91,12.75,12.03-12.21,12.88,12.73-12.2,12.36,12.2,12.01,12.18-11.99,5.17,4.82c2.84,2.65,5.36,5.24,5.59,5.74.94,2,3.45.65,9.03-4.83l5.83-5.75-12.75-12.92L2676.26,0l12.91,12.75,12.02-12.2,5.84,5.74c3.2,3.16,5.83,6.31,5.83,7s-10.98,12.25-24.4,25.68l-24.4,24.42,6.11,6.03,6.12,6.02,6.09-6.01,6.1-6,5.83,5.74c3.21,3.16,6.34,5.75,6.97,5.75s3.76-2.59,6.97-5.75l5.84-5.75-12.76-12.91,12.72-12.72,12.86,12.69Z"/>
</svg>